ffmpeg started on 2016-11-27 at 19:46:52
Report written to "Output/NVENCh264/results/ffmpeg/crowd_run_2160p50llhp2000k.log"
Command line:
Tools/ffmpeg/ffmpeg -benchmark -y -i Input/y4m/crowd_run_2160p50.y4m -c:v h264_nvenc -preset llhp -b:v 2000k -an Output/NVENCh264/encoded/crowd_run_2160p50llhp2000k.mkv
ffmpeg version N-82227-gdb23fde Copyright (c) 2000-2016 the FFmpeg developers
  built with gcc 5.4.0 (Ubuntu 5.4.0-6ubuntu1~16.04.2) 20160609
  configuration: --prefix=/home/jaroslav/ffmpeg_build --pkg-config-flags=--static --extra-cflags=-I/home/jaroslav/ffmpeg_build/include --extra-ldflags=-L/home/jaroslav/ffmpeg_build/lib --bindir=/home/jaroslav/bin --enable-gpl --enable-libass --enable-libfdk-aac --enable-libfreetype --enable-libmp3lame --enable-libopus --enable-libtheora --enable-libvorbis --enable-libvpx --enable-libx264 --enable-libx265 --enable-nvenc --enable-libmfx --enable-libxvid --enable-libgsm --enable-libopencore-amrnb --enable-version3 --enable-nonfree
  libavutil      55. 35.100 / 55. 35.100
  libavcodec     57. 66.101 / 57. 66.101
  libavformat    57. 57.100 / 57. 57.100
  libavdevice    57.  2.100 / 57.  2.100
  libavfilter     6. 66.100 /  6. 66.100
  libswscale      4.  3.100 /  4.  3.100
  libswresample   2.  4.100 /  2.  4.100
  libpostproc    54.  2.100 / 54.  2.100
Input #0, yuv4mpegpipe, from 'Input/y4m/crowd_run_2160p50.y4m':
  Duration: 00:00:10.00, start: 0.000000, bitrate: 4976642 kb/s
    Stream #0:0: Video: rawvideo (I420 / 0x30323449), yuv420p(progressive), 3840x2160, SAR 1:1 DAR 16:9, 50 fps, 50 tbr, 50 tbn, 50 tbc
[h264_nvenc @ 0x3a411c0] The variable bitrate rate-control requires the 'qmin' and/or 'qmax' option set.
Output #0, matroska, to 'Output/NVENCh264/encoded/crowd_run_2160p50llhp2000k.mkv':
  Metadata:
    encoder         : Lavf57.57.100
    Stream #0:0: Video: h264 (h264_nvenc) (Main) (H264 / 0x34363248), yuv420p, 3840x2160 [SAR 1:1 DAR 16:9], q=-1--1, 2000 kb/s, 50 fps, 1k tbn, 50 tbc
    Metadata:
      encoder         : Lavc57.66.101 h264_nvenc
    Side data:
      cpb: bitrate max/min/avg: 0/0/2000000 buffer size: 4000000 vbv_delay: -1
Stream mapping:
  Stream #0:0 -> #0:0 (rawvideo (native) -> h264 (h264_nvenc))
Press [q] to stop, [?] for help
frame=   10 fps=0.0 q=0.0 size=       0kB time=00:00:00.00 bitrate=N/A speed=   0x    frame=   24 fps= 24 q=0.0 size=       0kB time=00:00:00.00 bitrate=N/A speed=   0x    frame=   41 fps= 27 q=49.0 size=       1kB time=00:00:00.20 bitrate=  29.7kbits/s speed=0.131x    frame=   59 fps= 29 q=49.0 size=       1kB time=00:00:00.56 bitrate=  10.6kbits/s speed=0.273x    frame=   77 fps= 30 q=49.0 size=       1kB time=00:00:00.92 bitrate=   6.5kbits/s speed=0.358x    frame=   95 fps= 31 q=49.0 size=       1kB time=00:00:01.28 bitrate=   4.7kbits/s speed=0.414x    frame=  112 fps= 17 q=49.0 size=       1kB time=00:00:01.62 bitrate=   3.7kbits/s speed=0.251x    frame=  113 fps= 11 q=49.0 size=       1kB time=00:00:01.64 bitrate=   3.6kbits/s speed=0.165x    frame=  114 fps=9.0 q=49.0 size=       1kB time=00:00:01.66 bitrate=   3.6kbits/s speed=0.131x    frame=  132 fps= 10 q=49.0 size=       1kB time=00:00:02.02 bitrate=   2.9kbits/s speed=0.153x    frame=  150 fps= 11 q=49.0 size=       1kB time=00:00:02.38 bitrate=   2.5kbits/s speed=0.174x    frame=  167 fps= 12 q=49.0 size=       1kB time=00:00:02.72 bitrate=   2.2kbits/s speed=0.191x    frame=  184 fps= 12 q=49.0 size=       1kB time=00:00:03.06 bitrate=   1.9kbits/s speed=0.208x    frame=  201 fps= 13 q=49.0 size=       1kB time=00:00:03.40 bitrate=   1.8kbits/s speed=0.223x    frame=  218 fps= 14 q=49.0 size=       1kB time=00:00:03.74 bitrate=   1.6kbits/s speed=0.237x    frame=  236 fps= 14 q=49.0 size=       1kB time=00:00:04.10 bitrate=   1.5kbits/s speed=0.252x    frame=  253 fps= 15 q=49.0 size=       1kB time=00:00:04.44 bitrate=   1.3kbits/s speed=0.265x    frame=  271 fps= 16 q=49.0 size=       1kB time=00:00:04.80 bitrate=   1.2kbits/s speed=0.277x    frame=  288 fps= 16 q=49.0 size=    3048kB time=00:00:05.14 bitrate=4856.8kbits/s speed=0.289x    frame=  306 fps= 17 q=49.0 size=    3048kB time=00:00:05.50 bitrate=4538.9kbits/s speed= 0.3x    frame=  312 fps= 17 q=49.0 size=    3048kB time=00:00:05.62 bitrate=4442.0kbits/s speed=0.298x    frame=  330 fps= 17 q=49.0 size=    3048kB time=00:00:05.98 bitrate=4174.7kbits/s speed=0.309x    frame=  348 fps= 18 q=49.0 size=    3048kB time=00:00:06.34 bitrate=3937.7kbits/s speed=0.319x    frame=  366 fps= 18 q=49.0 size=    3048kB time=00:00:06.70 bitrate=3726.1kbits/s speed=0.328x    frame=  384 fps= 18 q=49.0 size=    3048kB time=00:00:07.06 bitrate=3536.1kbits/s speed=0.338x    frame=  402 fps= 19 q=49.0 size=    3048kB time=00:00:07.42 bitrate=3364.6kbits/s speed=0.346x    frame=  420 fps= 19 q=49.0 size=    3048kB time=00:00:07.78 bitrate=3208.9kbits/s speed=0.354x    frame=  438 fps= 19 q=49.0 size=    3048kB time=00:00:08.14 bitrate=3067.0kbits/s speed=0.362x    frame=  446 fps= 19 q=49.0 size=    3048kB time=00:00:08.30 bitrate=3007.9kbits/s speed=0.361x    frame=  464 fps= 20 q=49.0 size=    3048kB time=00:00:08.66 bitrate=2882.9kbits/s speed=0.369x    frame=  482 fps= 20 q=49.0 size=    3048kB time=00:00:09.02 bitrate=2767.8kbits/s speed=0.376x    frame=  500 fps= 20 q=49.0 size=    3048kB time=00:00:09.38 bitrate=2661.6kbits/s speed=0.382x    frame=  500 fps= 20 q=49.0 Lsize=    6295kB time=00:00:09.98 bitrate=5166.8kbits/s speed=0.406x    
video:6291kB audio:0kB subtitle:0kB other streams:0kB global headers:0kB muxing overhead: 0.067481%
bench: utime=1.092s
bench: maxrss=1396756kB
